<svg width="17" height="16" viewBox="0 0 17 16" fill="none" xmlns="http://www.w3.org/2000/svg">
<path d="M11.3334 4.00004V3.46671C11.3334 2.71997 11.3334 2.3466 11.1881 2.06139C11.0603 1.8105 10.8563 1.60653 10.6054 1.4787C10.3202 1.33337 9.94682 1.33337 9.20008 1.33337H8.13341C7.38668 1.33337 7.01331 1.33337 6.72809 1.4787C6.47721 1.60653 6.27324 1.8105 6.14541 2.06139C6.00008 2.3466 6.00008 2.71997 6.00008 3.46671V4.00004M7.33341 7.66671V11M10.0001 7.66671V11M2.66675 4.00004H14.6667M13.3334 4.00004V11.4667C13.3334 12.5868 13.3334 13.1469 13.1154 13.5747C12.9237 13.951 12.6177 14.257 12.2414 14.4487C11.8136 14.6667 11.2535 14.6667 10.1334 14.6667H7.20008C6.07998 14.6667 5.51992 14.6667 5.0921 14.4487C4.71578 14.257 4.40982 13.951 4.21807 13.5747C4.00008 13.1469 4.00008 12.5868 4.00008 11.4667V4.00004" stroke="#FEFEFE" stroke-width="1.6" stroke-linecap="round" stroke-linejoin="round"/>
</svg>
